<?xml version="1.0" standalone="no"?><!DOCTYPE svg PUBLIC "-//W3C//DTD SVG 1.1//EN" "http://www.w3.org/Graphics/SVG/1.1/DTD/svg11.dtd"><svg t="1630030647972" class="icon" viewBox="0 0 1024 1024" version="1.1" xmlns="http://www.w3.org/2000/svg" p-id="12874" xmlns:xlink="http://www.w3.org/1999/xlink" width="200" height="200"><defs><style type="text/css"></style></defs><path d="M815.21 532.907L684.499 705.983l46.79 31.242L862 564.151zM785.306 484.856l0.571 0.279 28.901-43.284-51.026-24.899-453.707-226.207L162 494.123l161.387 78.756 51.72 25.239 188.05 96.568 51.025 24.901 31.528-47.219 2.866-3.819-0.809-0.394 137.539-183.299z m-190.62 162.612L388.901 542.244l-51.72-25.237-99.943-48.771 20.562-42.137 269.669 131.596 24.674-50.563-269.67-131.596 53.461-109.553 396.29 198.186-137.538 183.299zM297.567 697.288h-79.305v-79.705H162v215.672h56.262V753.55H341.629l13.889-56.262 15.223-61.663-51.721-25.238z" p-id="12875"></path></svg>